# xmcd
#
# Track frame offsets: 
#        150
#        26057
#        48870
#        61397
#        78140
#        98065
#        117312
#        144635
#        167430
#        181490
#
# Disc length: 2643 seconds
#
# Revision: 1
# Processed by: cddbd v1.5.2PL0 Copyright (c) Steve Scherf et al.
# Submitted via: ExactAudioCopy v0.99pb5
#
DISCID=7b0a510a
DTITLE=Pajo - 1968
DYEAR=2006
DGENRE=Indie
TTITLE0=Who's That Knocking
TTITLE1=Foolish King
TTITLE2=We Get Along, Mostly
TTITLE3=Prescription Blues
TTITLE4=Insomnia Song
TTITLE5=Wrong Turn
TTITLE6=Cyclone Eye
TTITLE7=Walk Through The Dark
TTITLE8=Let It Be Me
TTITLE9=I've Just Restored My Will To Live Again
EXTD=
EXTT0=
EXTT1=
EXTT2=
EXTT3=
EXTT4=
EXTT5=
EXTT6=
EXTT7=
EXTT8=
EXTT9=
PLAYORDER=
